<svg width="100" height="100" viewBox="0 0 100 100" fill="none" xmlns="http://www.w3.org/2000/svg">
<rect width="100" height="100" rx="50" fill="white"/>
<path fill-rule="evenodd" clip-rule="evenodd" d="M51.5137 41.8059C52.5869 40.7311 54.3274 40.7305 55.4013 41.8044L57.8932 44.2963C58.958 45.361 58.969 47.0848 57.918 48.1632L48.6849 57.6364C47.9793 58.3603 47.0117 58.7685 46.0012 58.7684L43.2491 58.7683C41.9698 58.7683 40.9482 57.7019 41.002 56.4228L41.1202 53.6138C41.1597 52.6747 41.55 51.7847 42.2138 51.1199L51.5137 41.8059ZM54.3415 42.8659C53.8533 42.3777 53.0622 42.378 52.5744 42.8665L50.9113 44.5322L55.1911 48.8119L56.8446 47.1154C57.3224 46.6253 57.3173 45.8417 56.8333 45.3577L54.3415 42.8659ZM43.2745 52.1806L49.8514 45.5936L54.144 49.8862L47.6115 56.5887C47.1882 57.023 46.6076 57.2679 46.0013 57.2679L43.2492 57.2678C42.8227 57.2677 42.4822 56.9123 42.5001 56.4859L42.6183 53.6769C42.642 53.1135 42.8762 52.5795 43.2745 52.1806ZM58.5148 58.6951C58.9289 58.6951 59.2645 58.3592 59.2645 57.9449C59.2645 57.5305 58.9289 57.1946 58.5148 57.1946H52.3931C51.9791 57.1946 51.6434 57.5305 51.6434 57.9449C51.6434 58.3592 51.9791 58.6951 52.3931 58.6951H58.5148Z" fill="#202020"/>
</svg>
